<svg viewBox="661 368 313 136" fill="none" xmlns="http://www.w3.org/2000/svg">
  <rect x="664.5" y="371.5" width="306" height="129" rx="17.5" stroke="#fff" stroke-width="5" fill="none"></rect>
  <path d="M722.983 483V468.818L756.119 438.136C758.938 435.409 761.301 432.955 763.21 430.773C765.15 428.591 766.619 426.455 767.619 424.364C768.619 422.242 769.119 419.955 769.119 417.5C769.119 414.773 768.498 412.424 767.256 410.455C766.013 408.455 764.316 406.924 762.165 405.864C760.013 404.773 757.574 404.227 754.847 404.227C751.998 404.227 749.513 404.803 747.392 405.955C745.271 407.106 743.634 408.758 742.483 410.909C741.331 413.061 740.756 415.621 740.756 418.591H722.074C722.074 412.5 723.453 407.212 726.21 402.727C728.968 398.242 732.831 394.773 737.801 392.318C742.771 389.864 748.498 388.636 754.983 388.636C761.65 388.636 767.453 389.818 772.392 392.182C777.362 394.515 781.225 397.758 783.983 401.909C786.741 406.061 788.119 410.818 788.119 416.182C788.119 419.697 787.422 423.167 786.028 426.591C784.665 430.015 782.225 433.818 778.71 438C775.195 442.152 770.241 447.136 763.847 452.955L750.256 466.273V466.909H789.347V483H722.983ZM815.108 484.182C812.108 484.182 809.532 483.121 807.381 481C805.259 478.848 804.199 476.273 804.199 473.273C804.199 470.303 805.259 467.758 807.381 465.636C809.532 463.515 812.108 462.455 815.108 462.455C818.017 462.455 820.563 463.515 822.744 465.636C824.926 467.758 826.017 470.303 826.017 473.273C826.017 475.273 825.502 477.106 824.472 478.773C823.472 480.409 822.153 481.727 820.517 482.727C818.881 483.697 817.078 484.182 815.108 484.182ZM874.483 485.045C866.665 485.015 859.938 483.091 854.301 479.273C848.695 475.455 844.377 469.924 841.347 462.682C838.347 455.439 836.862 446.727 836.892 436.545C836.892 426.394 838.392 417.742 841.392 410.591C844.422 403.439 848.741 398 854.347 394.273C859.983 390.515 866.695 388.636 874.483 388.636C882.271 388.636 888.968 390.515 894.574 394.273C900.21 398.03 904.544 403.485 907.574 410.636C910.604 417.758 912.104 426.394 912.074 436.545C912.074 446.758 910.559 455.485 907.528 462.727C904.528 469.97 900.225 475.5 894.619 479.318C889.013 483.136 882.301 485.045 874.483 485.045ZM874.483 468.727C879.816 468.727 884.074 466.045 887.256 460.682C890.438 455.318 892.013 447.273 891.983 436.545C891.983 429.485 891.256 423.606 889.801 418.909C888.377 414.212 886.347 410.682 883.71 408.318C881.104 405.955 878.028 404.773 874.483 404.773C869.18 404.773 864.938 407.424 861.756 412.727C858.574 418.03 856.968 425.97 856.938 436.545C856.938 443.697 857.65 449.667 859.074 454.455C860.528 459.212 862.574 462.788 865.21 465.182C867.847 467.545 870.938 468.727 874.483 468.727Z" fill="#fff"></path>
</svg>
