<svg xmlns="http://www.w3.org/2000/svg" viewBox="0 0 311 134">
  <path fill="white" d="M291 0C302.046 0 311 8.95431 311 20V114C311 125.046 302.046 134 291 134H20C8.95431 134 0 125.046 0 114V20C0 8.95431 8.95431 0 20 0H291ZM110.608 19.6367C104.124 19.6367 98.3955 20.8638 93.4258 23.3184C88.4563 25.7729 84.5925 29.2428 81.835 33.7275C79.0775 38.2123 77.6992 43.5001 77.6992 49.5908H96.3809C96.3809 46.6212 96.9569 44.0607 98.1084 41.9092C99.2599 39.7578 100.896 38.1056 103.017 36.9541C105.138 35.8026 107.623 35.2275 110.472 35.2275C113.199 35.2276 115.639 35.7724 117.79 36.8633C119.941 37.9238 121.638 39.4542 122.881 41.4541C124.123 43.4238 124.744 45.7727 124.744 48.5C124.744 50.9545 124.244 53.2421 123.244 55.3633C122.244 57.4542 120.774 59.5906 118.835 61.7725C116.926 63.9543 114.562 66.4094 111.744 69.1367L78.6084 99.8184V114H144.972V97.9092H105.881V97.2725L119.472 83.9541C125.865 78.1361 130.82 73.1514 134.335 69C137.85 64.8182 140.29 61.0151 141.653 57.5908C143.047 54.1666 143.744 50.6968 143.744 47.1816C143.744 41.8182 142.366 37.0606 139.608 32.9092C136.851 28.7577 132.986 25.515 128.017 23.1816C123.077 20.8182 117.275 19.6368 110.608 19.6367ZM159.778 20.9092V114H179.46V87.5459L189.142 75.7275L214.642 114H238.188L203.233 62.5908L237.778 20.9092H214.188L180.688 61.9541H179.46V20.9092H159.778Z"></path>
</svg>
