<svg xmlns="http://www.w3.org/2000/svg" width="311" height="134" viewBox="0 0 311 134">
  <path d="M291 0C302.046 3.57563e-06 311 8.95431 311 20V114C311 125.046 302.046 134 291 134H20C8.95431 134 0 125.046 0 114V20C0 8.95431 8.95431 0 20 0H291ZM113 20.9092L74.1367 82.1367V97.6367H118.818V114H137.637V97.6367H149.182V81.8633H137.637V20.9092H113ZM162.841 20.9092V114H182.522V87.5459L192.204 75.7275L217.704 114H241.25L206.296 62.5908L240.841 20.9092H217.25L183.75 61.9541H182.522V20.9092H162.841ZM119.182 81.8633H93.9541V81.1367L118.454 42.3633H119.182V81.8633Z" fill="white"></path>
</svg>
