<svg viewBox="330 368 313 136" fill="none" xmlns="http://www.w3.org/2000/svg">
  <rect x="333.5" y="371.5" width="306" height="129" rx="17.5" stroke="#fff" stroke-width="5" fill="none"></rect>
  <path d="M443.733 484.273C437.309 484.273 431.581 483.091 426.551 480.727C421.551 478.364 417.581 475.106 414.642 470.955C411.703 466.803 410.172 462.045 410.051 456.682H429.142C429.354 460.288 430.869 463.212 433.688 465.455C436.506 467.697 439.854 468.818 443.733 468.818C446.824 468.818 449.551 468.136 451.915 466.773C454.309 465.379 456.172 463.455 457.506 461C458.869 458.515 459.551 455.667 459.551 452.455C459.551 449.182 458.854 446.303 457.46 443.818C456.097 441.333 454.203 439.394 451.778 438C449.354 436.606 446.581 435.894 443.46 435.864C440.733 435.864 438.081 436.424 435.506 437.545C432.96 438.667 430.975 440.197 429.551 442.136L412.051 439L416.46 389.909H473.369V406H432.688L430.278 429.318H430.824C432.46 427.015 434.93 425.106 438.233 423.591C441.536 422.076 445.233 421.318 449.324 421.318C454.93 421.318 459.93 422.636 464.324 425.273C468.718 427.909 472.188 431.53 474.733 436.136C477.278 440.712 478.536 445.985 478.506 451.955C478.536 458.227 477.081 463.803 474.142 468.682C471.233 473.53 467.157 477.348 461.915 480.136C456.703 482.894 450.642 484.273 443.733 484.273ZM500.733 484.182C497.733 484.182 495.157 483.121 493.006 481C490.884 478.848 489.824 476.273 489.824 473.273C489.824 470.303 490.884 467.758 493.006 465.636C495.157 463.515 497.733 462.455 500.733 462.455C503.642 462.455 506.188 463.515 508.369 465.636C510.551 467.758 511.642 470.303 511.642 473.273C511.642 475.273 511.127 477.106 510.097 478.773C509.097 480.409 507.778 481.727 506.142 482.727C504.506 483.697 502.703 484.182 500.733 484.182ZM556.233 389.909V483H536.551V408.591H536.006L514.688 421.955V404.5L537.733 389.909H556.233Z" fill="#fff"></path>
</svg>
