<svg viewBox="-1 368 313 136" fill="none" xmlns="http://www.w3.org/2000/svg">
  <rect x="2.5" y="371.5" width="306" height="129" rx="17.5" stroke="#fff" stroke-width="5" fill="none"></rect>
  <path d="M91.6023 483L130.193 406.636V406H85.2386V389.909H150.557V406.227L111.92 483H91.6023ZM159.545 484.182C156.545 484.182 153.97 483.121 151.818 481C149.697 478.848 148.636 476.273 148.636 473.273C148.636 470.303 149.697 467.758 151.818 465.636C153.97 463.515 156.545 462.455 159.545 462.455C162.455 462.455 165 463.515 167.182 465.636C169.364 467.758 170.455 470.303 170.455 473.273C170.455 475.273 169.939 477.106 168.909 478.773C167.909 480.409 166.591 481.727 164.955 482.727C163.318 483.697 161.515 484.182 159.545 484.182ZM215.045 389.909V483H195.364V408.591H194.818L173.5 421.955V404.5L196.545 389.909H215.045Z" fill="#fff"></path>
</svg>
