<svg viewBox="-1 558 313 136" fill="none" xmlns="http://www.w3.org/2000/svg">
  <rect x="2.5" y="561.5" width="306" height="129" rx="17.5" stroke="#fff" stroke-width="5" fill="none"></rect>
  <path d="M60.5284 673H27.5284V579.909H60.8011C70.1648 579.909 78.2254 581.773 84.983 585.5C91.7405 589.197 96.9375 594.515 100.574 601.455C104.241 608.394 106.074 616.697 106.074 626.364C106.074 636.061 104.241 644.394 100.574 651.364C96.9375 658.333 91.7102 663.682 84.892 667.409C78.1042 671.136 69.983 673 60.5284 673ZM47.2102 656.136H59.7102C65.5284 656.136 70.4223 655.106 74.392 653.045C78.392 650.955 81.392 647.727 83.392 643.364C85.4223 638.97 86.4375 633.303 86.4375 626.364C86.4375 619.485 85.4223 613.864 83.392 609.5C81.392 605.136 78.4072 601.924 74.4375 599.864C70.4678 597.803 65.5739 596.773 59.7557 596.773H47.2102V656.136ZM178.153 579.909H197.835V640.364C197.835 647.152 196.214 653.091 192.972 658.182C189.759 663.273 185.259 667.242 179.472 670.091C173.684 672.909 166.941 674.318 159.244 674.318C151.517 674.318 144.759 672.909 138.972 670.091C133.184 667.242 128.684 663.273 125.472 658.182C122.259 653.091 120.653 647.152 120.653 640.364V579.909H140.335V638.682C140.335 642.227 141.108 645.379 142.653 648.136C144.229 650.894 146.441 653.061 149.29 654.636C152.138 656.212 155.456 657 159.244 657C163.063 657 166.381 656.212 169.199 654.636C172.047 653.061 174.244 650.894 175.79 648.136C177.366 645.379 178.153 642.227 178.153 638.682V579.909ZM214.028 673V579.909H251.301C258.15 579.909 263.862 580.924 268.438 582.955C273.013 584.985 276.453 587.803 278.756 591.409C281.059 594.985 282.21 599.106 282.21 603.773C282.21 607.409 281.483 610.606 280.028 613.364C278.574 616.091 276.574 618.333 274.028 620.091C271.513 621.818 268.634 623.045 265.392 623.773V624.682C268.938 624.833 272.256 625.833 275.347 627.682C278.468 629.53 280.998 632.121 282.938 635.455C284.877 638.758 285.847 642.697 285.847 647.273C285.847 652.212 284.619 656.621 282.165 660.5C279.741 664.348 276.15 667.394 271.392 669.636C266.634 671.879 260.771 673 253.801 673H214.028ZM233.71 656.909H249.756C255.241 656.909 259.241 655.864 261.756 653.773C264.271 651.652 265.528 648.833 265.528 645.318C265.528 642.742 264.907 640.47 263.665 638.5C262.422 636.53 260.65 634.985 258.347 633.864C256.074 632.742 253.362 632.182 250.21 632.182H233.71V656.909ZM233.71 618.864H248.301C250.998 618.864 253.392 618.394 255.483 617.455C257.604 616.485 259.271 615.121 260.483 613.364C261.725 611.606 262.347 609.5 262.347 607.045C262.347 603.682 261.15 600.97 258.756 598.909C256.392 596.848 253.028 595.818 248.665 595.818H233.71V618.864Z" fill="#fff"></path>
</svg>
