<svg xmlns="http://www.w3.org/2000/svg" viewBox="331 0 311 134">
  <path fill="white" d="M622 0C633.046 0 642 8.95431 642 20V114C642 125.046 633.046 134 622 134H351C339.954 134 331 125.046 331 114V20C331 8.95431 339.954 0 351 0H622ZM362.341 20.9092V114H382.022V75.5459H419.887V59.3184H382.022V37.1367H423.978V20.9092H362.341ZM437.216 20.9092V114H456.897V75.5459H496.853V114H516.488V20.9092H496.853V59.3184H456.897V20.9092H437.216ZM532.716 20.9092V114H565.716C575.17 114 583.291 112.136 590.079 108.409C596.897 104.682 602.125 99.333 605.762 92.3633C609.428 85.3937 611.262 77.0601 611.262 67.3633C611.262 57.6968 609.428 49.3934 605.762 42.4541C602.125 35.5149 596.928 30.1969 590.171 26.5C583.413 22.7727 575.352 20.9092 565.988 20.9092H532.716ZM564.943 37.7725C570.761 37.7725 575.655 38.8027 579.625 40.8633C583.595 42.9239 586.579 46.1364 588.579 50.5C590.609 54.8636 591.625 60.4847 591.625 67.3633C591.625 74.3026 590.609 79.9694 588.579 84.3633C586.579 88.7269 583.579 91.955 579.579 94.0459C575.609 96.1063 570.715 97.1367 564.897 97.1367H552.397V37.7725H564.943Z"></path>
</svg>
