<svg xmlns="http://www.w3.org/2000/svg" viewBox="662 0 311 134">
  <path fill="white" d="M953 0C964.046 0 973 8.95431 973 20V114C973 125.046 964.046 134 953 134H682C670.954 134 662 125.046 662 114V20C662 8.95431 670.954 0 682 0H953ZM731.278 20.9092V114H750.96V75.5459H790.915V114H810.551V20.9092H790.915V59.3184H750.96V20.9092H731.278ZM826.778 20.9092V114H859.778C869.233 114 877.354 112.136 884.142 108.409C890.96 104.682 896.188 99.333 899.824 92.3633C903.491 85.3937 905.324 77.0601 905.324 67.3633C905.324 57.6968 903.491 49.3934 899.824 42.4541C896.188 35.5149 890.991 30.1969 884.233 26.5C877.476 22.7727 869.414 20.9092 860.051 20.9092H826.778ZM859.006 37.7725C864.824 37.7725 869.718 38.8027 873.688 40.8633C877.657 42.9239 880.642 46.1364 882.642 50.5C884.672 54.8636 885.687 60.4847 885.688 67.3633C885.688 74.3026 884.672 79.9694 882.642 84.3633C880.642 88.7269 877.642 91.955 873.642 94.0459C869.672 96.1063 864.778 97.1367 858.96 97.1367H846.46V37.7725H859.006Z"></path>
</svg>
