<svg viewBox="-1 178 313 136" fill="none" xmlns="http://www.w3.org/2000/svg">
  <rect x="2.5" y="181.5" width="306" height="129" rx="17.5" stroke="#fff" stroke-width="5" fill="none"></rect>
  <path d="M27.2784 293V199.909H46.9602V238.318H86.9148V199.909H106.551V293H86.9148V254.545H46.9602V293H27.2784ZM155.778 293H122.778V199.909H156.051C165.415 199.909 173.475 201.773 180.233 205.5C186.991 209.197 192.188 214.515 195.824 221.455C199.491 228.394 201.324 236.697 201.324 246.364C201.324 256.061 199.491 264.394 195.824 271.364C192.188 278.333 186.96 283.682 180.142 287.409C173.354 291.136 165.233 293 155.778 293ZM142.46 276.136H154.96C160.778 276.136 165.672 275.106 169.642 273.045C173.642 270.955 176.642 267.727 178.642 263.364C180.672 258.97 181.688 253.303 181.688 246.364C181.688 239.485 180.672 233.864 178.642 229.5C176.642 225.136 173.657 221.924 169.688 219.864C165.718 217.803 160.824 216.773 155.006 216.773H142.46V276.136ZM215.903 293V199.909H252.631C259.661 199.909 265.661 201.167 270.631 203.682C275.631 206.167 279.434 209.697 282.04 214.273C284.676 218.818 285.994 224.167 285.994 230.318C285.994 236.5 284.661 241.818 281.994 246.273C279.328 250.697 275.464 254.091 270.403 256.455C265.373 258.818 259.282 260 252.131 260H227.54V244.182H248.949C252.706 244.182 255.828 243.667 258.312 242.636C260.797 241.606 262.646 240.061 263.858 238C265.1 235.939 265.722 233.379 265.722 230.318C265.722 227.227 265.1 224.621 263.858 222.5C262.646 220.379 260.782 218.773 258.267 217.682C255.782 216.561 252.646 216 248.858 216H235.585V293H215.903ZM266.176 250.636L289.312 293H267.585L244.949 250.636H266.176Z" fill="#fff"></path>
</svg>
